# xmcd
#
# Track frame offsets: 
#        150
#        28088
#        46518
#        70830
#        86683
#        125329
#        140076
#        159238
#        183027
#        206092
#        228956
#        246888
#        263971
#        281080
#        294819
#        319477
#
# Disc length: 4439 seconds
#
# Revision: 1
# Processed by: cddbd v1.5.2PL0 Copyright (c) Steve Scherf et al.
# Submitted via: ExactAudioCopyFreeDBPlugin 1.0
#
DISCID=e3115510
DTITLE=Tõnis Mägi - Jäljed
DYEAR=2003
DGENRE=
TTITLE0=Igatsus
TTITLE1=Jäljed
TTITLE2=Tuhat aastat üksindust
TTITLE3=Laul Timmile
TTITLE4=Vikerkaar
TTITLE5=Ballaad
TTITLE6=Paat
TTITLE7=Pärlid
TTITLE8=Püha Elmo tuled
TTITLE9=Koit
TTITLE10=Liivakell
TTITLE11=Elutants
TTITLE12=Kaunilt kaua
TTITLE13=Pühendus
TTITLE14=Ilus oled, isamaa
TTITLE15=Pimedale muusikule
EXTD=
EXTT0=
EXTT1=
EXTT2=
EXTT3=
EXTT4=
EXTT5=
EXTT6=
EXTT7=
EXTT8=
EXTT9=
EXTT10=
EXTT11=
EXTT12=
EXTT13=
EXTT14=
EXTT15=
PLAYORDER=
